<?xml version="1.0" standalone="no"?>
<!DOCTYPE svg PUBLIC "-//W3C//DTD SVG 20010904//EN"
 "http://www.w3.org/TR/2001/REC-SVG-20010904/DTD/svg10.dtd">
<svg version="1.0" xmlns="http://www.w3.org/2000/svg"
 width="512.000000pt" height="512.000000pt" viewBox="0 0 512.000000 512.000000"
 preserveAspectRatio="xMidYMid meet">
<metadata>
Created by potrace 1.14, written by Peter Selinger 2001-2017
</metadata>
<g transform="translate(0.000000,512.000000) scale(0.100000,-0.100000)"
fill="#000000" stroke="none">
<path d="M356 4768 c-159 -16 -293 -128 -340 -287 -14 -48 -16 -240 -15 -1920
0 -2025 -3 -1919 55 -2016 48 -83 128 -146 229 -181 47 -16 193 -17 2260 -17
1216 0 2224 3 2240 6 47 9 88 23 125 42 48 25 125 100 155 150 56 97 54 -7 54
2010 0 1211 -3 1874 -10 1900 -5 22 -11 48 -14 57 -15 65 -108 171 -185 212
-97 51 12 49 -2310 50 -1196 1 -2206 -2 -2244 -6z m4406 -358 c17 -21 18 -43
16 -254 l-3 -231 -2215 0 -2215 0 -3 229 c-3 257 1 272 60 278 18 2 1003 2
2187 2 l2155 -2 18 -22z m1 -830 c16 0 17 -75 17 -1424 0 -1357 -1 -1425 -18
-1446 l-18 -22 -2184 0 -2184 0 -18 22 c-17 21 -18 91 -18 1446 l0 1423 53 3
c38 2 4249 1 4370 -2z"/>
<path d="M685 4299 c-16 -5 -37 -15 -46 -22 -24 -18 -49 -72 -49 -104 0 -42
43 -99 85 -113 119 -39 216 91 144 192 -32 45 -82 62 -134 47z"/>
<path d="M1073 4291 c-44 -22 -76 -81 -69 -127 15 -92 99 -137 181 -98 115 54
81 226 -46 238 -19 2 -48 -4 -66 -13z"/>
<path d="M1503 4299 c-31 -9 -82 -59 -84 -82 0 -7 -2 -21 -5 -32 -5 -28 23
-87 52 -109 60 -44 137 -28 182 38 63 92 -34 216 -145 185z"/>
<path d="M3025 3143 c-12 -2 -36 -21 -54 -41 -26 -29 -230 -373 -425 -717 -28
-49 -127 -220 -141 -243 -6 -9 -23 -39 -38 -67 -15 -27 -32 -57 -37 -65 -6 -8
-55 -94 -110 -190 -55 -96 -104 -182 -109 -190 -68 -110 -164 -290 -168 -316
-21 -132 121 -236 242 -178 43 20 63 47 164 224 46 80 92 161 104 180 11 19
35 62 54 95 19 33 38 67 44 75 10 16 234 404 277 480 14 25 106 185 205 355
99 171 190 330 203 355 32 63 28 127 -12 176 -51 63 -114 84 -199 67z"/>
<path d="M1476 2955 c-29 -12 -719 -694 -738 -730 -24 -44 -28 -89 -11 -137
14 -41 68 -98 378 -408 390 -388 362 -367 460 -361 97 5 173 139 132 234 -7
16 -138 154 -292 308 l-279 279 281 283 c155 155 287 295 292 310 25 67 -1
156 -56 194 -62 43 -110 51 -167 28z"/>
<path d="M3527 2956 c-48 -18 -74 -41 -98 -88 -21 -41 -24 -92 -9 -135 6 -15
138 -155 293 -310 l281 -282 -278 -279 c-154 -154 -285 -292 -293 -306 -43
-83 13 -199 112 -233 29 -10 53 -9 105 3 29 6 723 692 747 739 20 37 20 113 0
151 -9 16 -173 186 -366 379 -392 392 -397 395 -494 361z"/>
</g>
</svg>
